:SAMPLES-PER-SECOND 30
:FULLY-SPECIFIED
:DEGREES
761
root  -1.69371 39.0644 5.401 178.364 -2.08382 -174.958
RightUpLeg  -11.8938 10.1788 7.6683
RightLeg  22.5872 -7.70037 -4.00789
RightFoot  -5.06803 -0.202821 3.06225
RightToes  -2.32832e-010 0 -3.6325e-017
Spine  13.7267 7.4538 4.91354
Spine1  2.70239 6.37932 10.1075
HEad  14.7166 -38.3559 -4.89233
LeftShoulder1  0.95061 -2.1892 -9.30165
LeftArm  22.9393 60.2563 -42.5516
LeftForeArm  37.1772 -71.7186 -31.7807
LeftHand  -1.61987 -4.15686 19.8103
RightShoulder  0.109483 -2.85987 10.1555
RightArm  -23.5055 -12.725 47.4871
RightForeArm  148.121 50.6008 166.163
RightHand  -0.303085 -1.76612 -9.52726
LeftUpLeg  -40.1323 -4.08647 11.4127
LeftLeg  84.8781 -0.015272 4.95378
LeftFoot  -7.26347 0.548751 -14.1396
LeftToes  2.2737e-010 4.38529e-011 2.18788e-011
762
root  -1.7783 39.3027 5.28894 177.893 -0.791351 -174.195
RightUpLeg  -9.3128 5.70471 8.68023
RightLeg  18.6567 -2.42979 -2.45254
RightFoot  -3.55958 -0.252824 3.3633
RightToes  -2.32832e-010 0 -3.6325e-017
Spine  14.004 7.19495 4.60684
Spine1  3.11839 5.93925 10.7724
HEad  12.7874 -40.2541 -2.94806
LeftShoulder1  1.06308 -2.83009 -9.40575
LeftArm  24.972 59.3415 -42.1211
LeftForeArm  38.6679 -72.6285 -33.8933
LeftHand  -1.59018 -4.13129 19.5103
RightShoulder  0.181474 -2.48675 10.9448
RightArm  -18.8524 -15.1671 46.88
RightForeArm  147.008 57.984 162.121
RightHand  -0.371225 -1.29243 -10.4235
LeftUpLeg  -38.8757 -7.09454 11.8358
LeftLeg  80.0609 0.187259 3.06933
LeftFoot  -6.82071 0.714554 -16.9613
LeftToes  2.2737e-010 4.38529e-011 2.18788e-011
763
root  -1.86245 39.4226 5.1873 178.591 1.20799 -173.15
RightUpLeg  -8.44888 2.23241 9.39413
RightLeg  15.8071 2.74669 -0.728764
RightFoot  -2.86195 -0.274939 3.4453
RightToes  -2.32832e-010 0 -3.6325e-017
Spine  13.6431 6.83309 4.58707
Spine1  2.88716 5.54436 10.6115
HEad  11.2793 -40.876 -1.23801
LeftShoulder1  1.13047 -3.0665 -9.88085
LeftArm  24.9709 56.6722 -43.7909
LeftForeArm  36.4842 -72.249 -33.3537
LeftHand  -1.60953 -4.05109 19.8984
RightShoulder  0.256194 -2.10818 11.4338
RightArm  -13.1692 -17.6733 48.2214
RightForeArm  139.189 68.5775 150.957
RightHand  -0.504322 -0.279249 -11.4827
LeftUpLeg  -36.7312 -7.96032 12.363
LeftLeg  71.7973 0.460488 2.59108
LeftFoot  -5.53953 1.09637 -20.6413
LeftToes  2.2737e-010 4.38529e-011 2.18788e-011
764
root  -1.91618 39.3492 5.06961 -179.672 4.29807 -171.651
RightUpLeg  -9.51083 2.12605 10.6227
RightLeg  14.9816 5.81024 0.656688
RightFoot  -2.10241 -0.29214 3.43561
RightToes  -2.32832e-010 0 -3.6325e-017
Spine  12.694 6.49284 4.67639
Spine1  2.05432 5.27428 9.90532
HEad  10.0236 -40.4865 0.355636
LeftShoulder1  1.20838 -3.17848 -10.8511
LeftArm  22.8591 52.7867 -46.7291
LeftForeArm  32.199 -70.854 -30.7583
LeftHand  -1.64978 -3.70441 21.132
RightShoulder  0.336185 -1.72099 11.9194
RightArm  -7.63372 -19.7587 51.0253
RightForeArm  98.4557 78.748 106.325
RightHand  -0.76799 1.43504 -13.1439
LeftUpLeg  -33.4727 -6.52529 13.3443
LeftLeg  61.1722 -0.193987 0.31468
LeftFoot  -3.23302 1.73585 -23.9843
LeftToes  2.2737e-010 4.38529e-011 2.18788e-011
765
root  -1.93228 39.2095 4.95867 -178.208 7.92177 -170.132
RightUpLeg  -10.4748 3.06844 12.1298
RightLeg  15.007 8.09029 1.65367
RightFoot  -1.31971 -0.321223 3.55724
RightToes  -2.32832e-010 0 -3.6325e-017
Spine  11.8002 5.86419 3.98616
Spine1  1.75777 4.67584 9.11624
HEad  7.86589 -39.3945 2.65998
LeftShoulder1  1.37423 -3.44214 -12.7311
LeftArm  19.4819 47.4809 -49.6662
LeftForeArm  28.8599 -69.5199 -28.5366
LeftHand  -1.63814 -2.82331 23.1518
RightShoulder  0.463431 -1.18803 13.1356
RightArm  -2.46178 -20.4686 53.6202
RightForeArm  27.3821 70.8174 32.2519
RightHand  -1.18525 3.15734 -16.213
LeftUpLeg  -28.1297 -4.57097 13.9925
LeftLeg  50.1265 -1.81848 -1.93536
LeftFoot  -2.42763 1.88684 -23.6974
LeftToes  2.2737e-010 4.38529e-011 2.18788e-011
766
root  -1.92638 39.1837 4.92201 -177.551 10.8555 -169.209
RightUpLeg  -10.3301 4.43407 13.0643
RightLeg  14.4745 9.28787 1.98364
RightFoot  -1.30711 -0.36531 4.07691
RightToes  -2.32832e-010 0 -3.6325e-017
Spine  11.5172 4.62961 1.29719
Spine1  2.2219 3.19017 8.94721
HEad  4.45989 -37.9512 6.1396
LeftShoulder1  1.5705 -3.60502 -15.285
LeftArm  16.3487 39.8348 -51.8726
LeftForeArm  28.2998 -69.6981 -28.9873
LeftHand  -1.57146 -1.75559 25.404
RightShoulder  0.653147 -0.491998 14.9707
RightArm  2.96806 -20.6271 54.6279
RightForeArm  9.6533 52.4271 13.3823
RightHand  -1.59879 4.00354 -19.8705
LeftUpLeg  -21.8849 -3.7835 13.686
LeftLeg  40.6888 -1.49613 -1.07923
LeftFoot  -5.56458 0.983714 -18.0835
LeftToes  2.2737e-010 4.38529e-011 2.18788e-011
767
root  -1.93802 39.2405 5.04981 -176.971 12.1622 -169.148
RightUpLeg  -11.2426 6.28613 12.7567
RightLeg  14.9061 9.46309 2.23753
RightFoot  -1.57744 -0.53687 6.17746
RightToes  -2.32832e-010 0 -3.6325e-017
Spine  12.2264 2.90009 -3.7962
Spine1  2.05587 0.671489 10.2184
HEad  0.466819 -36.1605 10.4937
LeftShoulder1  1.6377 -3.45566 -16.8419
LeftArm  13.6776 29.6534 -54.2905
LeftForeArm  32.7255 -72.3537 -34.6167
LeftHand  -1.51279 -1.06527 26.9913
RightShoulder  0.843278 0.145836 16.5317
RightArm  8.45246 -23.1612 53.407
RightForeArm  5.93782 39.2074 8.57558
RightHand  -1.76356 3.88252 -22.1087
LeftUpLeg  -17.8342 -4.22069 12.6605
LeftLeg  34.0865 1.97381 1.80498
LeftFoot  -10.4489 0.137966 -11.5029
LeftToes  2.2737e-010 4.38529e-011 2.18788e-011
